<svg width="541" height="356" viewBox="0 0 541 356" fill="none" xmlns="http://www.w3.org/2000/svg">
<g clip-path="url(#clip0_2_24)">
<circle cx="242.5" cy="152.5" r="80.5" fill="#F48B6A"/>
<path d="M147.716 75.5161C148.457 74.0558 150.543 74.0558 151.284 75.5161L292.22 353.345C292.895 354.676 291.928 356.25 290.436 356.25H8.56394C7.0721 356.25 6.10539 354.676 6.7803 353.345L147.716 75.5161Z" fill="#1A2C56"/>
<path d="M346.736 5.29971C347.49 3.89015 349.51 3.89015 350.264 5.29971L536.154 353.057C536.866 354.389 535.9 356 534.39 356H162.61C161.1 356 160.134 354.389 160.847 353.057L346.736 5.29971Z" fill="#1A2C56"/>
<path d="M148.627 177.994C149.275 179.726 151.725 179.726 152.373 177.994L164.645 145.201C165.134 143.894 164.167 142.5 162.772 142.5H138.228C136.833 142.5 135.866 143.894 136.355 145.201L148.627 177.994Z" fill="#C4C9F6"/>
<path d="M173.568 176.771C174.097 178.749 176.903 178.749 177.432 176.771L185.653 146.016C185.992 144.746 185.035 143.5 183.721 143.5H167.279C165.965 143.5 165.008 144.746 165.347 146.016L173.568 176.771Z" fill="#C4C9F6"/>
<path d="M122.073 177.068C122.616 179.021 125.384 179.021 125.927 177.068L134.553 146.036C134.908 144.761 133.949 143.5 132.627 143.5H115.373C114.051 143.5 113.092 144.761 113.447 146.036L122.073 177.068Z" fill="#C4C9F6"/>
<path d="M147.724 75.4297C148.47 73.9893 150.53 73.9893 151.276 75.4297L185.66 141.83C186.35 143.162 185.383 144.75 183.884 144.75H115.116C113.617 144.75 112.65 143.162 113.34 141.83L147.724 75.4297Z" fill="#C4C9F6"/>
<path d="M347.627 105.994C348.275 107.726 350.725 107.726 351.373 105.994L363.645 73.2009C364.134 71.8937 363.167 70.5 361.772 70.5H337.228C335.833 70.5 334.866 71.8937 335.355 73.2009L347.627 105.994Z" fill="#C4C9F6"/>
<path d="M372.568 104.771C373.097 106.749 375.903 106.749 376.432 104.771L384.653 74.0165C384.992 72.7465 384.035 71.5 382.721 71.5H366.279C364.965 71.5 364.008 72.7465 364.347 74.0165L372.568 104.771Z" fill="#C4C9F6"/>
<path d="M321.073 105.068C321.616 107.021 324.384 107.021 324.927 105.068L333.553 74.0357C333.908 72.7612 332.949 71.5 331.627 71.5H314.373C313.051 71.5 312.092 72.7612 312.447 74.0357L321.073 105.068Z" fill="#C4C9F6"/>
<path d="M346.724 3.42972C347.47 1.98928 349.53 1.98928 350.276 3.42972L384.66 69.8303C385.35 71.1616 384.383 72.75 382.884 72.75H314.116C312.617 72.75 311.65 71.1616 312.34 69.8303L346.724 3.42972Z" fill="#C4C9F6"/>
</g>
<defs>
<clipPath id="clip0_2_24">
<rect width="541" height="356" fill="white"/>
</clipPath>
</defs>
</svg>
